<svg id="Layer_1" data-name="Layer 1" xmlns="http://www.w3.org/2000/svg" xmlns:xlink="http://www.w3.org/1999/xlink" viewBox="0 0 600 558"><defs><style>.cls-1{fill:none;}.cls-2{fill:#487da8;}.cls-3{clip-path:url(#clip-path);}.cls-4{fill:#377541;}</style><clipPath id="clip-path"><circle class="cls-1" cx="300" cy="279" r="278.93"/></clipPath></defs><circle class="cls-2" cx="300" cy="279" r="278.93"/><g class="cls-3"><path class="cls-4" d="M69.07,116.82s-10.74,15.65-11.32,22.44S47.54,158.06,48,163.17s-4.86,16,1.24,18.8-1,8.17,3.1,20.87-9.7,38.37-2.47,44,28.68,13.72,27.27,23.25,17.81,18.37,16.54,27.45,13.54,22.54,16.06,20.82,14.24,8.82,11.52,14.47-15.7,22.1-14.71,25.39-8.17,12.45-.79,25.65,27.62,38.29,39.28,52.3-3.77,28.72-.83,43.56,9.53,24.31,8.31,41.37,27.76,36.34,27.76,36.34,5.73,2.62,5.91-4-17.12-15.43-14-22.61,6.76-15.35,11.73-13.37-5-15,.78-13.22,17.14,16.13,25.53-6.85,2.14-7,18.38-19.93,16.27,22.5,36.23-29.67c6.25-7.15,4.48,5.59,9.95,1.53s26.46-18.5,7.92-22-5.91-20.21-31.32-21-1.66-12.56-17.42-13.19c-9.92-.4,5.86-6.33,1.76-12.71s-7.84-27.74-30.38-34-12.33-7.08-13.54-15S183.4,321.27,171.7,321s-16.48-19.21-23.85-14.82-23.09,11.38-27.63,5.47-13.8-4.21-16.39-8.62,0-12.69-.6-19.8-3.11-10.6-8.63-12.29,3.36-4.1,2.19-14.12,2.42-8.92-8.51-7.72-21.76,6-19.79-9.35,3.4-37.9,14.05-39.18,9,2.14,16.14,2.5,13.15-3.54,15.52-.4,6.76-3.37,7.62,15.6,3.87,19,6.8,21.24,7.34-4.25,5.68-11.7-1.44-24,10.3-28.85,25.76-12.6,25.76-21.84,6.57-13.67,10.35-8.9c0,0,10.84-3.93,16-2.36s11.61-11.73,17.67-7.88,15.17.32,15.17.32c7.61,1.4,21.59,5.66,24.11,0s-12.13-3.7-14.65-7.28,4.8-11.8-1.68-13-9.94,1-13.43-2.08,17.3-8,22.54-2.77,32.67-1.7,39.12,3.48,4.59-5.84-2.2-9.91-7.08-5.78-3.47-7.09-4.49-9-4.49-9,6.49-17.31-2.23-20.37-9.38,8.39-16.32,3.47-13.59-8.16-1.08-13.59-20.56-14.3-20.56-14.3-.74,9-7.77,9.68-8,5.2-7.46,12.6-17.87,4.6-23.52,16.54-13.64,13.12-9-.74,12.37-10.29,8-14.43-17.11,6-19.1-9.84,6.54-14.88,6.56-18.9,4.25-6,13.7-6.72,5.67-10.68,11-8.27,13.59-1.08,15.14-2.21,11.86-2,17.63.15,10.82.08,13.46-6-6.45-5.18-9.19-2.8-10.87,2.72-9.86-.59-7.24-2.61-10.07-3.87-17.83,1.8-21.86-3.45-8.69,2.17-9.54-6.92C193.27,20.2,136.82,34.47,69.07,116.82Z"/><path class="cls-4" d="M306.33,14.17c6.06,4.65,15.57.88,17.95,5.35S314,33.21,321,39.53s-2.71,4.31-2.86,9.4a44.7,44.7,0,0,1-1.72,10.22s-4.59,13.54-1.68,22.37,3.34,19.7,9.85,19.81,8.78,6.42,14,1.48,6.45-7.38,9.92-9.59-2.65-12,10.92-7.88,20.27-10.17,25.46-8.82,20.21,2.65,21.88,1.76,13.16-.26,11.1-5.76-7.54-15.11-5.83-14.58,4.47-5.33,6.35-7.85-2.24-6.44-5.12-11.52,1.77-6.54,1.31-8.67-4.18,1.38-.45-2.13,2.94-5.3-6.65-5.79-1.66-4.71-3.66-6.86S387.26,5,383.53,6.28s-10.6-3-12.35-.89S352.37.32,348.76.55,333,1.29,331.07,2.68,321,6,315.94,5.15,306.33,14.17,306.33,14.17Z"/><path class="cls-4" d="M269.94,9.59c-8.37.12-23.74,4.73-22.93,8.28,1.33,5.87,7,2.58,13.72,8.1S273.44,37.13,271,40.21,258.6,46.8,254.9,47.6s-17.76,1.1-17.27,3.55,16.4,3.09,16.11,5.3-3.05,7.51,2.7,10,14.81,6.81,17.42,4.54,8.82-8.82,7.39-10.41-5.68-4-3.28-5.6,7.57-3.45,7.37,2.24,5.76,2.53,9.34,2.08,5.71-3.63,2.25-7.37-10.55-8.2-7.8-9.66,7.45.73,5-3.85-4.41-13.24-7.67-13.85-6.14-3.79-4.41-4.41,5.69.2,6.09-2.37-5.76-2.52-7.27-2.59-5.6,3.28-5.6,3.28-7.59-1.55-6.57-2.39S278.81,9.47,269.94,9.59Z"/><path class="cls-4" d="M276,143.69c-5.56,3.46-16.21,8.81-12.64,11.18s13.61,2.86,13.18,6.6,6.75,9.79,9.28,7.12,2.66-12.94,1.44-14.6-4.71-1.86-7.48-3.14,8.81-9.34,2.51-8.25Z"/><path class="cls-4" d="M496.15,251.65c-5.44,1.76-26-4.4-32-1.93s-31.35,8.73-32,17.43-8.72,5.25-16.49,12-21.91,31-24.69,37.94-10.17,10-8.64,14.53,2.35,8.5.25,18.14,3.15,8.68,8.16,22.4,13.92,16.5,25.57,23.25,34-14.88,37.11-2,1.75,15.1,4.3,16.92.21,20.24-2.74,41.48S410.69,487.12,408,505.46s-30.12,26.24-29.66,31.81,10.6,7.36,15.14,5.83,5.05-7.73,13.52-8,44.13-15.19,49.5-22.44,17.13-20.66,27-21.46,22.24-36.37,42.48-36.59,60.43-113.43,61.89-155.34,2.46-116.84-51.55-196.08c0,0-.29,16.39-3.9,12.86s-16-12.26-12.85-16.52-1.38-11.27-5-14.8-13.27-4.54-14.79-7.61-13.39,3.52-10.59,8.31.19,9.16-2.41,13.53-2.89,3.21-3.56,11.29-9.13-.89-7,9.44,7.27,17,13.76,12.33,7.88-6,12,2.63,6.3,6.31,8.19,12.75,5.26-6.53,4.49-10.53S503,125,504.73,114.42s-2.28-19.69,1.63-15,2.5,1.09,6.21,11.77,11,29.84,16.82,36,11.14,11.76-1.52,14.48-25,6.61-25.45,1-.47-15.46-7.66-12.64-9,8.46-13.88,18.36-18.16,17.85-16,25.52S474,204.8,466,209.08s-21.3-7.94-25.11-.54-5.08,8.21-2.09,17.09,7.47,6,9.24,13,12.24,9.25,17-.13,3.87-9,12.66-6.5S489,214.1,497.33,213.72s2.63,2.77,9.27,6.41,6.48-5.71,9.62-5,12.2-.63,16,9.53,2.49,26.32,7.61,28,5.53,2.3,7.13-5,1.75,2,6.54-7.35-.77-16.62,3.52-21.17.57-2.62,6.74-.72,19.08,20.62,14.39,24.53-5-4.92-8.6-.78-17.41,9.37-9.92,20.32,10.72-6.43,12.17,7.05,1.37,23.88-4.14,26.52-18.88,3.56-18.83.82-2.51-18.64-6.63-17.35-6.87,13.86-12.69,10.4-7.93-21.48-15.72-21-3.41-9.52-6.79-14.1S496.15,251.65,496.15,251.65Z"/><path class="cls-4" d="M425,142.16c-14.11-5.15,0,11.49,4.06,16.72s2.41,24.63,4.67,28.28,11.66,4.12,15.24,2.53,5-2.1,6.22-6.68-1.61-9-2.54-12.47S435.73,160.37,441,155.6s-1.33-11.65-3.82-7.9S432.63,145,425,142.16Z"/><path class="cls-4" d="M438,54.19c-3.67,2,5.95,3.67,9.35,8s4,11.67,11.17,13.34,16.63,4.8,18.51,5.52,5.23-10.68,1.33-10.91S458,66,459.14,63.64s-1.57-8.55-5.62-7.57S443.81,51,438,54.19Z"/></g></svg>