<svg xmlns="http://www.w3.org/2000/svg" viewBox="0 0 300 327.36"><g id="Layer_2" data-name="Layer 2"><path d="M40,197.09c1.16-6.07,5.52-10.77,10-14.7,5.41-4.73,11.14-9.13,16.93-13.38,11.17-8.22,22.88-15.62,34.77-22.75,7.15-4.29,14.35-8.5,21.52-12.77.66-.39,1.74-1.27,1-2.09s-2.37-.29-3.07.12c-12.72,7.57-25.56,14.95-38,23a321.41,321.41,0,0,0-35.51,26C42.18,185.14,36.8,190.64,35.4,198c-.35,1.84,4.24.83,4.57-.89Z"/><path d="M196.4,70.25a155.5,155.5,0,0,0-9.17-17.78C184,47.15,180.44,42.05,176.76,37c-4-5.45-8-10.95-12.32-16.19A59.26,59.26,0,0,0,149.35,7.17C138.64.78,125.09-2.16,113,1.79c-4.41,1.44-8.71,3.34-13,5.18q-7.6,3.29-15.06,6.9a267.41,267.41,0,0,0-28.5,15.45c-10.1,6.47-18.54,14.92-25.88,24.36-8.1,10.42-15,21.72-22.12,32.84-3.54,5.57-6.92,11.53-8,18.12-1.13,6.87.07,13.79,1.48,20.52a243.11,243.11,0,0,0,10.64,35.53A291.42,291.42,0,0,0,28.38,196q2,3.77,4.17,7.44a3.23,3.23,0,0,0,2.83,1.71c1.09-.16,1.11-1.28.64-2.08a254.14,254.14,0,0,1-16-32.69A280.51,280.51,0,0,1,8,134.85a124.94,124.94,0,0,1-3.6-17.65A37.65,37.65,0,0,1,4.46,107a35.44,35.44,0,0,1,3-9.24c2.69-5.75,6.45-11,9.86-16.32s7-10.92,10.69-16.23C35.23,54.86,43.33,44.86,53.4,37.11c7.79-6,16.68-10.65,25.39-15.12,9.48-4.86,19.14-9.4,29-13.46,4.58-1.89,9.16-3.84,14.12-4.45a40.09,40.09,0,0,1,17.65,2,43.44,43.44,0,0,1,15.86,9.36c4.84,4.5,8.73,9.91,12.7,15.15,7.36,9.73,14.57,19.54,20.21,30.4q2.22,4.27,4.17,8.69a3.52,3.52,0,0,0,2.57,2.19c.93.12,1.78-.58,1.34-1.58Z"/><path d="M124.52,132.58a81.19,81.19,0,0,1,11.06-15.06q6.72-7.45,13.81-14.58c9.41-9.45,19.63-18.5,31.51-24.72a66,66,0,0,1,20.61-7c.78-.12,2.31-.54,2.21-1.6s-1.83-1.14-2.53-1c-28.52,4.35-49.75,26.19-68.38,46.47a89,89,0,0,0-12.94,17.38c-.53,1,1.27,1.4,1.85,1.42a3,3,0,0,0,2.8-1.28Z"/><path d="M123.21,134c26.55,6.34,48.33-14.33,68-28.66,21.46-15.68,45.09-29,70.75-36.38a154.35,154.35,0,0,1,22-4.64,25.48,25.48,0,0,1,8.22-.1,9,9,0,0,1,2.79,1c-.26-.18.24.25.11.09a5.07,5.07,0,0,1,.36.45,5.19,5.19,0,0,1,.66,1.7v-.56c-15.18,11.29-32.19,19.84-49.67,27-4.94,2-9.93,3.92-14.95,5.75-1.09.4,2.19,3.51,3.49,3,17.9-6.52,35.53-14,51.79-24q6.82-4.19,13.25-9a.59.59,0,0,0,0-.56c-1.25-5.21-7.31-7.67-12.12-8.12a34.35,34.35,0,0,0-7.84.43q-5,.69-10,1.73a177.6,177.6,0,0,0-38.76,13.11A251.07,251.07,0,0,0,195.45,96.8c-5.69,3.9-11.23,8-16.7,12.2s-10.91,8.39-16.72,12.08c-11.94,7.6-26.55,13.36-40.85,9.94-.89-.21-1.2.29-.73,1a5,5,0,0,0,2.76,1.94Z"/><path d="M193.79,71.92c19.83-1.06,39.76-.42,59.52-2.49,6.25-.65,12.47-1.54,18.65-2.62a2.88,2.88,0,0,0,2.28-2.42c0-1.2-1.07-1.57-2.07-1.4a257.84,257.84,0,0,1-30.59,3.52c-9.32.5-18.65.56-28,.78q-9.26.21-18.51.69a3,3,0,0,0-2.73,2,1.43,1.43,0,0,0,1.42,2Z"/><path d="M66,193.24c-7.41-5.76-18.16-6.83-26-1.26S29.75,207.74,30,216.8c.27,10.78,3.67,22,10.6,30.41,6.52,7.89,16.78,13.78,27.31,12.23a21.37,21.37,0,0,0,17.81-22.53c-.08-.94-1.11-1.83-1.81-2.37-.17-.13-1.89-1.27-1.83-.48a21,21,0,0,1-12.66,20.73c-8.24,3.3-18.49.85-24.75-5.31-7-6.9-10.11-17.51-10.89-27.07-.68-8.42.6-17.82,6.48-24.3,6.24-6.88,18.12-8.89,25.73-3,.34.26,1.57,1.24,1.83.48s-1.4-2.06-1.8-2.38Z"/><path d="M73.25,253.47c3.1,13.19,10,25.43,18.61,35.76a91.4,91.4,0,0,0,29.88,23.69,165.79,165.79,0,0,0,17,7.21,96.31,96.31,0,0,0,18.18,4.52,114.68,114.68,0,0,0,45.27-1.71,81.57,81.57,0,0,0,19.8-7.6,71.67,71.67,0,0,0,15.94-12.19A72.54,72.54,0,0,0,257,267.38c3.24-14.73,3.23-30.06,3.87-45.06.59-13.94,1-28-1-41.86A117.64,117.64,0,0,0,255,160.1c-2.07-6.21-4.89-12.08-7.22-18.17-2-5.27-3.86-10.6-6.06-15.79s-4.57-10.17-8.06-14.44a23.28,23.28,0,0,0-5.41-5c-.71-.46-2.15-1-2.78-.14s.54,2.1,1.19,2.52a10.09,10.09,0,0,1,2.16,1.72,19.68,19.68,0,0,1,2.06,2.35,43.54,43.54,0,0,1,3.92,6.35,143.69,143.69,0,0,1,6.61,15.68c1.84,5,3.77,9.81,5.84,14.66a120,120,0,0,1,6.68,20.33c3,13,3.4,26.37,3.05,39.68-.2,7.41-.58,14.81-.89,22.21-.3,7.19-.61,14.4-1.43,21.55a100,100,0,0,1-4.47,20.95,67.47,67.47,0,0,1-9,17.4A69.37,69.37,0,0,1,211,315.77c-13.56,5.5-28.58,7.37-43.13,6.63a116.11,116.11,0,0,1-21.32-3A101.79,101.79,0,0,1,131.32,314,128.58,128.58,0,0,1,116.59,307,78,78,0,0,1,102,295.76a90.37,90.37,0,0,1-21.86-32.48,68.06,68.06,0,0,1-2.68-8.72,3.3,3.3,0,0,0-2.43-2.24c-.79-.2-2.06,0-1.8,1.15Z"/><path d="M53.88,203c-2.33-1.39-4.93-2.82-7.72-2.85a7.85,7.85,0,0,0-6.4,3.38c-3.46,4.77-3.24,11.19-2.29,16.73a71.84,71.84,0,0,0,2.05,8.55,25.5,25.5,0,0,0,3.75,8.15,14.18,14.18,0,0,0,14.29,5.73,12.27,12.27,0,0,0,9.22-12.36,3.45,3.45,0,0,0-1.87-2.72c-.68-.36-2-.47-2,.67a10.54,10.54,0,0,1-5.88,9.84c-3.48,1.6-8.16,1.22-10.77-1.8a16.31,16.31,0,0,1-2.93-6c-.74-2.38-1.36-4.82-1.86-7.26-.94-4.64-1.47-9.91.55-14.34.94-2.06,2.57-4,4.89-4.51s4.81,1,6.84,2.17c.78.46,1.86.38,2-.66s-1-2.22-1.87-2.72Z"/><path d="M168.91,265.55a48.34,48.34,0,0,1,10.83-17c.41-.41,1.4-1.64.5-2.08s-2.27.64-2.8,1.18A54.8,54.8,0,0,0,165,267.18c-.39,1,1.06.88,1.59.67a4.18,4.18,0,0,0,2.35-2.3Z"/><path d="M247.16,238.83a30.7,30.7,0,0,0-12.86-8.91c-.32-.12-1,.29-1.16.44a5.18,5.18,0,0,0-1.29,1.31c-.33.49-1.11,1.7-.24,2A30,30,0,0,1,244,242.4c.21.25.77,0,1-.08a4.45,4.45,0,0,0,1.33-1.07c.41-.49,1.45-1.74.87-2.42Z"/><path d="M173.23,259.92c9.46-.06,17.25-5.36,24.93-10.27a88.93,88.93,0,0,1,25.13-11.22,84.82,84.82,0,0,1,15.34-2.53c.93-.07,1.77-.88,1.25-1.8s-2-1.27-3.08-1.19a88.24,88.24,0,0,0-39,12.33c-3.82,2.28-7.46,4.84-11.31,7.06-4.25,2.44-8.94,4.53-13.93,4.57-.86,0-2.17.31-2,1.44s1.77,1.62,2.66,1.61Z"/><path d="M174.29,260.05c5.45-.82,11.1.16,16.42,1.33,2.21.49,4.4,1.09,6.63,1.44a31.57,31.57,0,0,0,7.27.22c9.95-.75,19.41-5.8,26.64-12.51a47,47,0,0,0,10-13c.82-1.62-3.25-4.09-4-2.57a47.8,47.8,0,0,1-20.59,20.41,39.25,39.25,0,0,1-13.72,4.31,28.46,28.46,0,0,1-6.84-.07c-2-.27-4.06-.86-6.07-1.3-6-1.33-12.36-2.44-18.52-1.53-1.09.17-.7,1.35-.22,1.93a3.64,3.64,0,0,0,3,1.38Z"/><path d="M126.44,193A36.68,36.68,0,0,1,155,175a33.76,33.76,0,0,1,9.93.65,2.15,2.15,0,1,0,.81-4.19c-13.06-2.82-27.17,1.52-36.79,10.69a38.23,38.23,0,0,0-6.85,8.8c-1.42,2.5,3,4.36,4.3,2Z"/><path d="M144.16,176.14c-2.31,2.05-4.81,4.49-4.8,7.58s2.82,5.77,5.89,6.55,6.29.16,9.37-.58a6.32,6.32,0,0,0,2.7-1.14,5.6,5.6,0,0,0,1.51-2.76,21.71,21.71,0,0,0-.31-13.08"/><path d="M208,163c7.17-7.61,20.32-8.08,28.22-1.27,1.88,1.62,5.24-1.77,3.38-3.38-9.72-8.36-25.5-7.28-34.24,2-.72.77-1.23,2.15-.36,3s2.29.39,3-.37Z"/><path d="M187.82,163.18c-3.4,8.29,3.73,15.34,9.11,20.6q4.9,4.8,9.41,10,2.24,2.61,4.37,5.31a56.22,56.22,0,0,1,4,5.44c1.4,2.28.68,4.26-.42,6.49a44.86,44.86,0,0,1-4,6.66c-1.26,1.74,3.35,2,4.21.77a50.46,50.46,0,0,0,3.65-5.73c.94-1.76,2-3.68,2.16-5.71s-1.34-4-2.55-5.62q-2.11-2.85-4.37-5.6-4.35-5.32-9.15-10.27c-3.1-3.19-6.61-6.1-9.26-9.7s-4.31-8.21-2.55-12.51c.65-1.56-4-1.63-4.64-.16Z"/><path d="M196.8,222.56a9.88,9.88,0,0,1,.27-1.44c-.11.41,0-.06.05-.12s.06-.18.1-.27.18-.46.29-.68a1.79,1.79,0,0,0,.2-.39c0,.12-.18.31,0,.08s.26-.42.4-.62.17-.24.26-.35,0,0-.09.11c.2-.17.36-.42.54-.6L199,218c.32-.31-.32.27-.09.08l.58-.46.3-.21c-.14.13-.44.27-.1.06s.42-.24.64-.35a3.41,3.41,0,0,0,.33-.17c-.17.12-.39.17-.06,0a7,7,0,0,1,.69-.24,1.08,1.08,0,0,1,.35-.1c-.22,0-.3.06,0,0s.53-.09.8-.12a3.51,3.51,0,0,0,2.67-2.05c.35-.95-.14-1.66-1.18-1.54-5.51.62-10.67,5.42-11.27,11-.11,1.07,1,1.26,1.82,1a3.42,3.42,0,0,0,2.29-2.38Z"/><path d="M211.06,158.07c-2.42,2.57-1.78,10.79,1.16,12.74s7.17,1.26,9.75-1.15c3.62-3.41,3.92-9.16,2.55-13.94"/><path d="M200.05,129.2a3,3,0,0,1,2.37-1.82c6.49-.83,13.18-1.43,19.33.72,5.11,1.79,9.67,6.1,11,11.15a3,3,0,0,1-3.73,3.61A176.51,176.51,0,0,0,200.88,137a3,3,0,0,1-2.37-4.11Z"/><path d="M120.29,34.73a77,77,0,0,1,20.44,34.6c.31,1.1,1.89.63,2.52.2a2.75,2.75,0,0,0,1.35-2.82A78.84,78.84,0,0,0,123.71,31.4c-1.51-1.46-4.91,1.88-3.42,3.33Z"/><path d="M120.65,35c12.59,4.69,24.76,10.46,37.15,15.63,3.28,1.37,6.57,2.71,9.89,3.95.9.33,2-.61,2.51-1.23s1.24-1.82.5-2.39a54,54,0,0,1-20.38-32.58c-.22-1.08-1.87-.29-2.34.07a3,3,0,0,0-1.37,2.75,55.31,55.31,0,0,0,20.77,33.19l3-3.61c-12.58-4.69-24.75-10.46-37.14-15.64-3.28-1.37-6.57-2.7-9.9-3.94-1.61-.6-4.56,3.1-2.69,3.8Z"/><path d="M121,21.57c2.58,7.65,10.08,12.29,18,12.68.43,0,2.32.24,2.43-.45S139.26,33,139,33l-.68-.05c-.06,0-.65-.07-.36,0l-.35-.06c-.7-.11.36.1-.33-.07a12.77,12.77,0,0,1-2-.62,16.11,16.11,0,0,1-4-2.33,16.84,16.84,0,0,1-5.6-7.82c-.25-.71-1.7-.8-2.33-.85-.19,0-2.6-.07-2.43.45Z"/><path d="M136,13.47a24.73,24.73,0,0,0-1.13,12.24,41.31,41.31,0,0,0,4.86,12.72c4.48,8.3,9.07,16.54,13.61,24.8,1.41,2.57,5.29.75,3.81-1.95q-6.48-11.81-13-23.59c-2-3.68-4-7.47-4.81-11.64a21.47,21.47,0,0,1,1-11.14c.42-1.16-.69-2.52-1.74-2.86A2,2,0,0,0,136,13.47Z"/><path d="M39,193.25c-6.64,6.2,17.88-21.43,35.56-31.43s47.6-29.31,47.6-29.31,12.64,3.64,24.43-1.54,34.86-20.42,46-28.69,40.57-1.2,40.57-1.2-43.9,33.55-46.19,34.81-.26-15.59-.05-18.3-25,36.66-69.23,58.22c6.43-11.61,11.53-27.37,12.15-30.48s-32.85,19-34.39,45,6.26,31.12,7.17,37.69-.29,21.73-.29,21.73L65.59,192.86S47.76,185.11,39,193.25Z"/></g></svg>