<svg xmlns="http://www.w3.org/2000/svg" viewBox="0 0 465.54 357.41"><g id="Layer_2" data-name="Layer 2"><path d="M412.66,74.55c-23.88-30.7-61.77-51.79-101.22-63.64C268.63-1.95,222.36-3.23,179.05,6c-42.26,9-82.74,27.69-112.85,55C51.51,74.27,39.4,89.86,32,107.34a100,100,0,0,0-6.73,55.43,105,105,0,0,0,8.8,28,111.63,111.63,0,0,0,7.86,13.88c3,4.46,6.46,8.72,8.82,13.47,2.23,4.5,2.75,9.14.85,13.73-2,4.76-5.84,8.78-9.72,12.43-9,8.47-18.47,16.58-27.71,24.84L.62,281.18c-1.85,1.65.84,4,3,3.42l92-25.46-3.15-.94c29.72,30.47,68.11,54.64,110.16,70,41.53,15.2,87,21.76,131.08,15.43,38.3-5.5,76.29-20.8,100.34-47.81,14-15.77,21.31-35,25.24-54.64,2.17-10.81,3.48-21.78,4.6-32.73a263.74,263.74,0,0,0,1.6-32.77c-.46-20.62-4.8-41.4-15.57-60.11a120.26,120.26,0,0,0-40.7-42.07A127.59,127.59,0,0,0,395.08,66c-2.94-1.34-5.44,2.09-2.29,3.53a116.73,116.73,0,0,1,45.75,37.42c12,16.48,18.42,35.24,20.62,54.42,2.48,21.55.2,43.34-2.8,64.64-2.86,20.33-7.69,40.92-19.85,58.51-19.5,28.2-54.74,45.29-90.82,52.81-41.49,8.65-85.45,4.93-126-7.61-42-13-81.11-34.9-112.14-63.22q-5.49-5-10.65-10.32a3.44,3.44,0,0,0-3.15-.94l-92,25.46,3,3.41L32.4,259.35c4.53-4.05,9.16-8.05,13.57-12.2,3.67-3.45,7.26-7.17,9.59-11.47a18.64,18.64,0,0,0,2.09-13.62c-1.22-4.78-4.07-9-7-13.19-6.09-8.69-11.36-17.58-15-27.24A97.61,97.61,0,0,1,31.58,126c4-18.15,13.49-34.91,26.19-49.44,25.79-29.52,64.33-50.5,104.56-62,42-12.06,88-14.06,131.46-4.1,39.84,9.13,78.92,27.78,105.68,56q4.66,4.92,8.79,10.22c1.71,2.2,6.36.47,4.4-2Z"/></g></svg>